<svg width="860" height="1847" viewBox="0 0 860 1847" fill="none" xmlns="http://www.w3.org/2000/svg">
<path d="M429.79 0C67.7482 0 -8.1168 310.476 0.656285 423.53C9.43029 536.584 57.3297 645.043 117.815 745.871C153.172 804.808 193.783 862.651 250.506 907.785C286.808 936.67 323.441 970.719 394.302 979.339C340.303 1012.18 306.146 1066.13 301.183 1122.51C298.589 1151.99 305.041 1181.12 317.972 1208.44C331.1 1236.16 349.437 1261.69 368.161 1286.85C404.671 1335.93 445.789 1387.69 442.947 1448.44C439.714 1517.57 386.944 1576.19 347.314 1633.39C327.103 1662.56 309.855 1693.89 300.345 1726.91C291.426 1757.89 289.543 1791.41 302.748 1821.73C306.018 1829.24 310.083 1836.45 314.918 1843.31C318.925 1848.99 329.379 1843.81 325.353 1838.09C284.474 1780.09 313.125 1708.1 347.885 1653.44C385.07 1594.97 437.582 1540.88 451.712 1473.7C458.059 1443.53 455.03 1413.08 443.399 1384.12C432.448 1356.86 415.499 1331.73 397.699 1307.38C362.313 1258.97 319.06 1209.35 313.361 1150.54C307.77 1092.83 336.489 1033.73 388.185 996.314C391.583 993.854 395.094 991.523 398.689 989.289C397.586 994.318 398.677 999.696 401.566 1004.21C403.422 1007.11 405.981 1009.63 408.954 1011.75C401.666 1019.2 396.379 1028.94 393.323 1037.64C389.309 1049.08 387.997 1061.06 386.704 1072.95C386.686 1073.13 386.672 1073.31 386.655 1073.5C386.384 1073.52 386.106 1073.53 385.845 1073.59C380.136 1074.89 381.046 1081.62 384.719 1084.28C386.995 1085.94 389.935 1086.74 392.812 1087.42C407.68 1090.96 423.173 1092.4 438.604 1092.33C446.598 1092.3 454.65 1091.86 462.466 1090.35C468.484 1089.19 478.166 1087.42 482.581 1083.52C484.051 1082.21 485.026 1080.42 484.828 1078.62C484.629 1076.82 483.076 1075.1 480.994 1074.77C480.861 1074.75 480.728 1074.79 480.596 1074.78C481.261 1054.43 472.981 1034.35 463.24 1015.62C462.112 1013.45 460.89 1011.24 459.4 1009.23C459.859 1008.83 460.35 1008.44 460.773 1008.02C462.36 1006.46 463.692 1004.72 464.765 1002.87C469.047 995.492 469.089 986.625 465.597 979.307C536.251 970.623 572.824 936.628 609.072 907.786C665.796 862.652 706.407 804.81 741.763 745.872C802.249 645.044 850.148 536.585 858.922 423.531C867.697 310.476 791.831 0 429.79 0Z" fill="#2172A5"/>
<path d="M395.451 1308.04C360.065 1259.63 316.812 1210.01 311.113 1151.2C305.522 1093.49 334.241 1034.39 385.937 996.975C389.335 994.515 392.846 992.184 396.442 989.95C396.701 988.768 397.043 987.599 397.555 986.473C398.467 984.465 399.769 982.652 401.303 980.981C398.147 980.707 395.081 980.369 392.053 980C338.053 1012.84 303.897 1066.79 298.935 1123.18C296.341 1152.65 302.792 1181.79 315.723 1209.1C328.851 1236.82 347.188 1262.35 365.913 1287.52C402.422 1336.59 443.54 1388.35 440.698 1449.1C437.465 1518.23 384.695 1576.85 345.065 1634.05C324.854 1663.22 307.606 1694.55 298.096 1727.57C289.177 1758.55 287.294 1792.07 300.499 1822.39C303.769 1829.9 307.834 1837.11 312.669 1843.97C316.676 1849.66 327.131 1844.47 323.104 1838.76C282.225 1780.75 310.876 1708.76 345.636 1654.1C382.821 1595.63 435.333 1541.54 449.463 1474.36C455.81 1444.19 452.781 1413.74 441.15 1384.78C430.2 1357.52 413.252 1332.39 395.451 1308.04Z" fill="#12080E"/>
<path d="M234.172 596.154C143.627 565.37 111.515 462.965 103.843 430.431C94.9716 392.808 92.0556 353.95 95.2631 315.688C98.2476 280.097 106.575 244.275 125.768 212.321C142.5 184.466 166.533 159.869 195.581 140.73C223.783 122.148 256.886 108.72 291.977 102.938C327.112 97.1487 363.295 100.144 397.27 109.909C553.874 154.917 557.113 327.868 537.285 388.222C480.762 560.27 330.297 628.834 234.172 596.154Z" fill="#5698C2" fill-opacity="0.55"/>
</svg>
