<svg width="1820" height="2474" viewBox="0 0 1820 2474" fill="none" xmlns="http://www.w3.org/2000/svg">
<path d="M970.616 244C608.574 244 532.709 554.476 541.482 667.53C550.256 780.584 598.156 889.044 658.641 989.871C693.998 1048.81 734.61 1106.65 791.332 1151.78C827.634 1180.67 864.267 1214.72 935.128 1223.34C881.129 1256.18 846.973 1310.13 842.01 1366.51C839.416 1395.99 845.867 1425.12 858.798 1452.44C871.926 1480.16 890.263 1505.69 908.988 1530.85C945.497 1579.93 986.615 1631.69 983.773 1692.44C980.54 1761.57 927.77 1820.19 888.14 1877.39C867.929 1906.56 850.681 1937.89 841.171 1970.91C832.252 2001.89 830.369 2035.41 843.574 2065.73C846.844 2073.24 850.909 2080.45 855.744 2087.31C859.751 2092.99 870.206 2087.81 866.179 2082.09C825.3 2024.09 853.951 1952.1 888.711 1897.44C925.896 1838.97 978.408 1784.88 992.538 1717.7C998.885 1687.53 995.856 1657.08 984.225 1628.12C973.274 1600.86 956.325 1575.73 938.525 1551.38C903.139 1502.97 859.886 1453.35 854.187 1394.54C848.596 1336.83 877.315 1277.73 929.011 1240.31C932.409 1237.85 935.92 1235.52 939.516 1233.29C938.413 1238.32 939.503 1243.7 942.392 1248.21C944.248 1251.11 946.807 1253.63 949.781 1255.75C942.492 1263.2 937.205 1272.94 934.149 1281.64C930.136 1293.08 928.823 1305.06 927.53 1316.95C927.512 1317.13 927.498 1317.31 927.481 1317.5C927.21 1317.52 926.932 1317.53 926.672 1317.59C920.962 1318.89 921.872 1325.62 925.545 1328.28C927.821 1329.94 930.761 1330.74 933.638 1331.42C948.506 1334.96 963.999 1336.4 979.43 1336.33C987.424 1336.3 995.476 1335.86 1003.29 1334.35C1009.31 1333.19 1018.99 1331.42 1023.41 1327.52C1024.88 1326.21 1025.85 1324.42 1025.65 1322.62C1025.45 1320.82 1023.9 1319.1 1021.82 1318.77C1021.69 1318.75 1021.55 1318.79 1021.42 1318.78C1022.09 1298.43 1013.81 1278.35 1004.07 1259.62C1002.94 1257.45 1001.72 1255.24 1000.23 1253.23C1000.68 1252.83 1001.18 1252.44 1001.6 1252.02C1003.19 1250.46 1004.52 1248.72 1005.59 1246.87C1009.87 1239.49 1009.92 1230.63 1006.42 1223.31C1077.08 1214.62 1113.65 1180.63 1149.9 1151.79C1206.62 1106.65 1247.23 1048.81 1282.59 989.872C1343.08 889.044 1390.97 780.585 1399.75 667.531C1408.52 554.476 1332.66 244 970.616 244Z" fill="#21A554"/>
<path d="M944.7 1284.27C942.65 1287.78 941.276 1291.59 940.652 1295.48C940.208 1298.25 940.195 1301.24 941.916 1303.62C943.039 1305.16 944.806 1306.3 946.662 1307.2C953.219 1310.37 961.067 1310.93 968.596 1310.69C971.511 1310.6 974.447 1310.39 977.247 1309.7C981.235 1308.71 984.873 1306.72 987.586 1304.03C991.117 1300.54 992.994 1295.7 992.236 1291.1C991.412 1286.09 987.267 1282.67 982.563 1279.96C975.615 1275.95 968.502 1277.29 960.647 1277.85C953.578 1278.36 948.231 1278.21 944.7 1284.27Z" fill="#5BB570"/>
<path d="M748.879 851.857C658.334 821.073 626.222 718.669 618.55 686.134C609.679 648.511 606.763 609.654 609.97 571.391C612.955 535.801 621.282 499.978 640.475 468.024C657.207 440.169 681.24 415.572 710.288 396.433C738.49 377.851 771.593 364.423 806.684 358.641C841.819 352.852 878.002 355.847 911.977 365.612C1068.58 410.62 1071.82 583.571 1051.99 643.925C995.469 815.973 845.004 884.537 748.879 851.857Z" fill="#5BB570"/>
<path d="M939.934 1324.57C937.532 1324.07 935.135 1323.5 932.672 1323.3C931.612 1323.22 930.366 1323.28 929.738 1324.01C929.394 1324.41 929.319 1324.94 929.383 1325.44C929.573 1326.88 930.858 1328.09 932.364 1328.77C933.871 1329.45 935.584 1329.72 937.273 1329.91C990.599 1335.95 1010.77 1327.76 1010.46 1326.38C1010.23 1325.35 978.963 1333.11 939.934 1324.57Z" fill="#5BB570"/>
<path d="M938.526 1551.38C903.139 1502.97 859.886 1453.35 854.187 1394.54C848.596 1336.83 877.315 1277.73 929.011 1240.31C932.409 1237.85 935.921 1235.52 939.516 1233.29C939.775 1232.11 940.117 1230.94 940.629 1229.81C941.542 1227.8 942.843 1225.99 944.377 1224.32C941.221 1224.05 938.155 1223.71 935.127 1223.34C881.128 1256.18 846.971 1310.13 842.009 1366.52C839.415 1395.99 845.866 1425.13 858.797 1452.44C871.925 1480.16 890.263 1505.69 908.987 1530.86C945.496 1579.93 986.615 1631.69 983.773 1692.44C980.539 1761.57 927.769 1820.19 888.14 1877.39C867.928 1906.56 850.68 1937.89 841.17 1970.91C832.251 2001.89 830.369 2035.41 843.574 2065.73C846.843 2073.24 850.909 2080.45 855.743 2087.31C859.75 2093 870.205 2087.81 866.178 2082.1C825.299 2024.09 853.951 1952.1 888.711 1897.44C925.895 1838.97 978.407 1784.88 992.537 1717.7C998.884 1687.53 995.855 1657.08 984.224 1628.12C973.275 1600.86 956.326 1575.73 938.526 1551.38Z" fill="#12080E"/>
</svg>
